v -0.002 -0.03 0.0004
v -0.002 -0.03 -0.0021
v -0.001992 -0.029826 0.0004
v -0.001992 -0.029826 -0.0021
v -0.00197 -0.029653 0.0004
v -0.00197 -0.029653 -0.0021
v -0.001932 -0.029482 0.0004
v -0.001932 -0.029482 -0.0021
v -0.001879 -0.029316 0.0004
v -0.001879 -0.029316 -0.0021
v -0.001813 -0.029155 0.0004
v -0.001813 -0.029155 -0.0021
v -0.001732 -0.029 0.0004
v -0.001732 -0.029 -0.0021
v -0.001638 -0.028853 0.0004
v -0.001638 -0.028853 -0.0021
v -0.001532 -0.028714 0.0004
v -0.001532 -0.028714 -0.0021
v -0.001414 -0.028586 0.0004
v -0.001414 -0.028586 -0.0021
v -0.001286 -0.028468 0.0004
v -0.001286 -0.028468 -0.0021
v -0.001147 -0.028362 0.0004
v -0.001147 -0.028362 -0.0021
v -0.001 -0.028268 0.0004
v -0.001 -0.028268 -0.0021
v -0.000845 -0.028187 0.0004
v -0.000845 -0.028187 -0.0021
v -0.000684 -0.028121 0.0004
v -0.000684 -0.028121 -0.0021
v -0.000518 -0.028068 0.0004
v -0.000518 -0.028068 -0.0021
v -0.000347 -0.02803 0.0004
v -0.000347 -0.02803 -0.0021
v -0.000174 -0.028008 0.0004
v -0.000174 -0.028008 -0.0021
v -0.0 -0.028 0.0004
v -0.0 -0.028 -0.0021
v 0.000174 -0.028008 0.0004
v 0.000174 -0.028008 -0.0021
v 0.000347 -0.02803 0.0004
v 0.000347 -0.02803 -0.0021
v 0.000518 -0.028068 0.0004
v 0.000518 -0.028068 -0.0021
v 0.000684 -0.028121 0.0004
v 0.000684 -0.028121 -0.0021
v 0.000845 -0.028187 0.0004
v 0.000845 -0.028187 -0.0021
v 0.001 -0.028268 0.0004
v 0.001 -0.028268 -0.0021
v 0.001147 -0.028362 0.0004
v 0.001147 -0.028362 -0.0021
v 0.001286 -0.028468 0.0004
v 0.001286 -0.028468 -0.0021
v 0.001414 -0.028586 0.0004
v 0.001414 -0.028586 -0.0021
v 0.001532 -0.028714 0.0004
v 0.001532 -0.028714 -0.0021
v 0.001638 -0.028853 0.0004
v 0.001638 -0.028853 -0.0021
v 0.001732 -0.029 0.0004
v 0.001732 -0.029 -0.0021
v 0.001813 -0.029155 0.0004
v 0.001813 -0.029155 -0.0021
v 0.001879 -0.029316 0.0004
v 0.001879 -0.029316 -0.0021
v 0.001932 -0.029482 0.0004
v 0.001932 -0.029482 -0.0021
v 0.00197 -0.029653 0.0004
v 0.00197 -0.029653 -0.0021
v 0.001992 -0.029826 0.0004
v 0.001992 -0.029826 -0.0021
v 0.002 -0.03 0.0004
v 0.002 -0.03 -0.0021
v 0.001992 -0.030174 0.0004
v 0.001992 -0.030174 -0.0021
v 0.00197 -0.030347 0.0004
v 0.00197 -0.030347 -0.0021
v 0.001932 -0.030518 0.0004
v 0.001932 -0.030518 -0.0021
v 0.001879 -0.030684 0.0004
v 0.001879 -0.030684 -0.0021
v 0.001813 -0.030845 0.0004
v 0.001813 -0.030845 -0.0021
v 0.001732 -0.031 0.0004
v 0.001732 -0.031 -0.0021
v 0.001638 -0.031147 0.0004
v 0.001638 -0.031147 -0.0021
v 0.001532 -0.031286 0.0004
v 0.001532 -0.031286 -0.0021
v 0.001414 -0.031414 0.0004
v 0.001414 -0.031414 -0.0021
v 0.001286 -0.031532 0.0004
v 0.001286 -0.031532 -0.0021
v 0.001147 -0.031638 0.0004
v 0.001147 -0.031638 -0.0021
v 0.001 -0.031732 0.0004
v 0.001 -0.031732 -0.0021
v 0.000845 -0.031813 0.0004
v 0.000845 -0.031813 -0.0021
v 0.000684 -0.031879 0.0004
v 0.000684 -0.031879 -0.0021
v 0.000518 -0.031932 0.0004
v 0.000518 -0.031932 -0.0021
v 0.000347 -0.03197 0.0004
v 0.000347 -0.03197 -0.0021
v 0.000174 -0.031992 0.0004
v 0.000174 -0.031992 -0.0021
v 0.0 -0.032 0.0004
v 0.0 -0.032 -0.0021
v -0.000174 -0.031992 0.0004
v -0.000174 -0.031992 -0.0021
v -0.000347 -0.03197 0.0004
v -0.000347 -0.03197 -0.0021
v -0.000518 -0.031932 0.0004
v -0.000518 -0.031932 -0.0021
v -0.000684 -0.031879 0.0004
v -0.000684 -0.031879 -0.0021
v -0.000845 -0.031813 0.0004
v -0.000845 -0.031813 -0.0021
v -0.001 -0.031732 0.0004
v -0.001 -0.031732 -0.0021
v -0.001147 -0.031638 0.0004
v -0.001147 -0.031638 -0.0021
v -0.001286 -0.031532 0.0004
v -0.001286 -0.031532 -0.0021
v -0.001414 -0.031414 0.0004
v -0.001414 -0.031414 -0.0021
v -0.001532 -0.031286 0.0004
v -0.001532 -0.031286 -0.0021
v -0.001638 -0.031147 0.0004
v -0.001638 -0.031147 -0.0021
v -0.001732 -0.031 0.0004
v -0.001732 -0.031 -0.0021
v -0.001813 -0.030845 0.0004
v -0.001813 -0.030845 -0.0021
v -0.001879 -0.030684 0.0004
v -0.001879 -0.030684 -0.0021
v -0.001932 -0.030518 0.0004
v -0.001932 -0.030518 -0.0021
v -0.00197 -0.030347 0.0004
v -0.00197 -0.030347 -0.0021
v -0.001992 -0.030174 0.0004
v -0.001992 -0.030174 -0.0021
v -0.0035 -0.03 -0.0021
v -0.003487 -0.029695 0.0004
v -0.003487 -0.029695 -0.0021
v -0.003447 -0.029392 0.0004
v -0.003447 -0.029392 -0.0021
v -0.003381 -0.029094 0.0004
v -0.003381 -0.029094 -0.0021
v -0.003289 -0.028803 0.0004
v -0.003289 -0.028803 -0.0021
v -0.003172 -0.028521 0.0004
v -0.003172 -0.028521 -0.0021
v -0.003031 -0.02825 0.0004
v -0.003031 -0.02825 -0.0021
v -0.002867 -0.027992 0.0004
v -0.002867 -0.027992 -0.0021
v -0.002681 -0.02775 0.0004
v -0.002681 -0.02775 -0.0021
v -0.002475 -0.027525 0.0004
v -0.002475 -0.027525 -0.0021
v -0.00225 -0.027319 0.0004
v -0.00225 -0.027319 -0.0021
v -0.002008 -0.027133 0.0004
v -0.002008 -0.027133 -0.0021
v -0.00175 -0.026969 0.0004
v -0.00175 -0.026969 -0.0021
v -0.001479 -0.026828 0.0004
v -0.001479 -0.026828 -0.0021
v -0.001197 -0.026711 0.0004
v -0.001197 -0.026711 -0.0021
v -0.000906 -0.026619 0.0004
v -0.000906 -0.026619 -0.0021
v -0.000608 -0.026553 0.0004
v -0.000608 -0.026553 -0.0021
v -0.000305 -0.026513 0.0004
v -0.000305 -0.026513 -0.0021
v -0.0 -0.0265 0.0004
v -0.0 -0.0265 -0.0021
v 0.000305 -0.026513 0.0004
v 0.000305 -0.026513 -0.0021
v 0.000608 -0.026553 0.0004
v 0.000608 -0.026553 -0.0021
v 0.000906 -0.026619 0.0004
v 0.000906 -0.026619 -0.0021
v 0.001197 -0.026711 0.0004
v 0.001197 -0.026711 -0.0021
v 0.001479 -0.026828 0.0004
v 0.001479 -0.026828 -0.0021
v 0.00175 -0.026969 0.0004
v 0.00175 -0.026969 -0.0021
v 0.002008 -0.027133 0.0004
v 0.002008 -0.027133 -0.0021
v 0.00225 -0.027319 0.0004
v 0.00225 -0.027319 -0.0021
v 0.002475 -0.027525 0.0004
v 0.002475 -0.027525 -0.0021
v 0.002681 -0.02775 0.0004
v 0.002681 -0.02775 -0.0021
v 0.002867 -0.027992 0.0004
v 0.002867 -0.027992 -0.0021
v 0.003031 -0.02825 0.0004
v 0.003031 -0.02825 -0.0021
v 0.003172 -0.028521 0.0004
v 0.003172 -0.028521 -0.0021
v 0.003289 -0.028803 0.0004
v 0.003289 -0.028803 -0.0021
v 0.003381 -0.029094 0.0004
v 0.003381 -0.029094 -0.0021
v 0.003447 -0.029392 0.0004
v 0.003447 -0.029392 -0.0021
v 0.003487 -0.029695 0.0004
v 0.003487 -0.029695 -0.0021
v 0.0035 -0.03 0.0004
v 0.0035 -0.03 -0.0021
v 0.003487 -0.030305 0.0004
v 0.003487 -0.030305 -0.0021
v 0.003447 -0.030608 0.0004
v 0.003447 -0.030608 -0.0021
v 0.003381 -0.030906 0.0004
v 0.003381 -0.030906 -0.0021
v 0.003289 -0.031197 0.0004
v 0.003289 -0.031197 -0.0021
v 0.003172 -0.031479 0.0004
v 0.003172 -0.031479 -0.0021
v 0.003031 -0.03175 0.0004
v 0.003031 -0.03175 -0.0021
v 0.002867 -0.032008 0.0004
v 0.002867 -0.032008 -0.0021
v 0.002681 -0.03225 0.0004
v 0.002681 -0.03225 -0.0021
v 0.002475 -0.032475 0.0004
v 0.002475 -0.032475 -0.0021
v 0.00225 -0.032681 0.0004
v 0.00225 -0.032681 -0.0021
v 0.002008 -0.032867 0.0004
v 0.002008 -0.032867 -0.0021
v 0.00175 -0.033031 0.0004
v 0.00175 -0.033031 -0.0021
v 0.001479 -0.033172 0.0004
v 0.001479 -0.033172 -0.0021
v 0.001197 -0.033289 0.0004
v 0.001197 -0.033289 -0.0021
v 0.000906 -0.033381 0.0004
v 0.000906 -0.033381 -0.0021
v 0.000608 -0.033447 0.0004
v 0.000608 -0.033447 -0.0021
v 0.000305 -0.033487 0.0004
v 0.000305 -0.033487 -0.0021
v 0.0 -0.0335 0.0004
v 0.0 -0.0335 -0.0021
v -0.000305 -0.033487 0.0004
v -0.000305 -0.033487 -0.0021
v -0.000608 -0.033447 0.0004
v -0.000608 -0.033447 -0.0021
v -0.000906 -0.033381 0.0004
v -0.000906 -0.033381 -0.0021
v -0.001197 -0.033289 0.0004
v -0.001197 -0.033289 -0.0021
v -0.001479 -0.033172 0.0004
v -0.001479 -0.033172 -0.0021
v -0.00175 -0.033031 0.0004
v -0.00175 -0.033031 -0.0021
v -0.002008 -0.032867 0.0004
v -0.002008 -0.032867 -0.0021
v -0.00225 -0.032681 0.0004
v -0.00225 -0.032681 -0.0021
v -0.002475 -0.032475 0.0004
v -0.002475 -0.032475 -0.0021
v -0.002681 -0.03225 0.0004
v -0.002681 -0.03225 -0.0021
v -0.002867 -0.032008 0.0004
v -0.002867 -0.032008 -0.0021
v -0.003031 -0.03175 0.0004
v -0.003031 -0.03175 -0.0021
v -0.003172 -0.031479 0.0004
v -0.003172 -0.031479 -0.0021
v -0.003289 -0.031197 0.0004
v -0.003289 -0.031197 -0.0021
v -0.003381 -0.030906 0.0004
v -0.003381 -0.030906 -0.0021
v -0.003447 -0.030608 0.0004
v -0.003447 -0.030608 -0.0021
v -0.003487 -0.030305 0.0004
v -0.003487 -0.030305 -0.0021
v -0.0035 -0.03 0.0004
f 1 2 3
f 2 4 3
f 3 4 5
f 4 6 5
f 5 6 7
f 6 8 7
f 7 8 9
f 8 10 9
f 9 10 11
f 10 12 11
f 11 12 13
f 12 14 13
f 13 14 15
f 14 16 15
f 15 16 17
f 16 18 17
f 17 18 19
f 18 20 19
f 19 20 21
f 20 22 21
f 21 22 23
f 22 24 23
f 23 24 25
f 24 26 25
f 25 26 27
f 26 28 27
f 27 28 29
f 28 30 29
f 29 30 31
f 30 32 31
f 31 32 33
f 32 34 33
f 33 34 35
f 34 36 35
f 35 36 37
f 36 38 37
f 37 38 39
f 38 40 39
f 39 40 41
f 40 42 41
f 41 42 43
f 42 44 43
f 43 44 45
f 44 46 45
f 45 46 47
f 46 48 47
f 47 48 49
f 48 50 49
f 49 50 51
f 50 52 51
f 51 52 53
f 52 54 53
f 53 54 55
f 54 56 55
f 55 56 57
f 56 58 57
f 57 58 59
f 58 60 59
f 59 60 61
f 60 62 61
f 61 62 63
f 62 64 63
f 63 64 65
f 64 66 65
f 65 66 67
f 66 68 67
f 67 68 69
f 68 70 69
f 69 70 71
f 70 72 71
f 71 72 73
f 72 74 73
f 73 74 75
f 74 76 75
f 75 76 77
f 76 78 77
f 77 78 79
f 78 80 79
f 79 80 81
f 80 82 81
f 81 82 83
f 82 84 83
f 83 84 85
f 84 86 85
f 85 86 87
f 86 88 87
f 87 88 89
f 88 90 89
f 89 90 91
f 90 92 91
f 91 92 93
f 92 94 93
f 93 94 95
f 94 96 95
f 95 96 97
f 96 98 97
f 97 98 99
f 98 100 99
f 99 100 101
f 100 102 101
f 101 102 103
f 102 104 103
f 103 104 105
f 104 106 105
f 105 106 107
f 106 108 107
f 107 108 109
f 108 110 109
f 109 110 111
f 110 112 111
f 111 112 113
f 112 114 113
f 113 114 115
f 114 116 115
f 115 116 117
f 116 118 117
f 117 118 119
f 118 120 119
f 119 120 121
f 120 122 121
f 121 122 123
f 122 124 123
f 123 124 125
f 124 126 125
f 125 126 127
f 126 128 127
f 127 128 129
f 128 130 129
f 129 130 131
f 130 132 131
f 131 132 133
f 132 134 133
f 133 134 135
f 134 136 135
f 135 136 137
f 136 138 137
f 137 138 139
f 138 140 139
f 139 140 141
f 140 142 141
f 141 142 143
f 142 144 143
f 143 144 1
f 144 2 1
f 145 146 147
f 146 148 147
f 147 148 149
f 148 150 149
f 149 150 151
f 150 152 151
f 151 152 153
f 152 154 153
f 153 154 155
f 154 156 155
f 155 156 157
f 156 158 157
f 157 158 159
f 158 160 159
f 159 160 161
f 160 162 161
f 161 162 163
f 162 164 163
f 163 164 165
f 164 166 165
f 165 166 167
f 166 168 167
f 167 168 169
f 168 170 169
f 169 170 171
f 170 172 171
f 171 172 173
f 172 174 173
f 173 174 175
f 174 176 175
f 175 176 177
f 176 178 177
f 177 178 179
f 178 180 179
f 179 180 181
f 180 182 181
f 181 182 183
f 182 184 183
f 183 184 185
f 184 186 185
f 185 186 187
f 186 188 187
f 187 188 189
f 188 190 189
f 189 190 191
f 190 192 191
f 191 192 193
f 192 194 193
f 193 194 195
f 194 196 195
f 195 196 197
f 196 198 197
f 197 198 199
f 198 200 199
f 199 200 201
f 200 202 201
f 201 202 203
f 202 204 203
f 203 204 205
f 204 206 205
f 205 206 207
f 206 208 207
f 207 208 209
f 208 210 209
f 209 210 211
f 210 212 211
f 211 212 213
f 212 214 213
f 213 214 215
f 214 216 215
f 215 216 217
f 216 218 217
f 217 218 219
f 218 220 219
f 219 220 221
f 220 222 221
f 221 222 223
f 222 224 223
f 223 224 225
f 224 226 225
f 225 226 227
f 226 228 227
f 227 228 229
f 228 230 229
f 229 230 231
f 230 232 231
f 231 232 233
f 232 234 233
f 233 234 235
f 234 236 235
f 235 236 237
f 236 238 237
f 237 238 239
f 238 240 239
f 239 240 241
f 240 242 241
f 241 242 243
f 242 244 243
f 243 244 245
f 244 246 245
f 245 246 247
f 246 248 247
f 247 248 249
f 248 250 249
f 249 250 251
f 250 252 251
f 251 252 253
f 252 254 253
f 253 254 255
f 254 256 255
f 255 256 257
f 256 258 257
f 257 258 259
f 258 260 259
f 259 260 261
f 260 262 261
f 261 262 263
f 262 264 263
f 263 264 265
f 264 266 265
f 265 266 267
f 266 268 267
f 267 268 269
f 268 270 269
f 269 270 271
f 270 272 271
f 271 272 273
f 272 274 273
f 273 274 275
f 274 276 275
f 275 276 277
f 276 278 277
f 277 278 279
f 278 280 279
f 279 280 281
f 280 282 281
f 281 282 283
f 282 284 283
f 283 284 285
f 284 286 285
f 285 286 287
f 286 288 287
f 287 288 145
f 288 146 145
f 58 201 60
f 201 203 60
f 60 203 62
f 203 205 62
f 62 205 64
f 205 207 64
f 64 207 66
f 207 209 66
f 66 209 68
f 209 211 68
f 68 211 70
f 211 213 70
f 70 213 72
f 213 215 72
f 72 215 74
f 215 217 74
f 74 217 76
f 217 219 76
f 76 219 78
f 219 221 78
f 78 221 80
f 221 223 80
f 80 223 82
f 223 225 82
f 82 225 84
f 225 227 84
f 84 227 86
f 227 229 86
f 86 229 88
f 229 231 88
f 88 231 90
f 231 233 90
f 90 233 92
f 233 235 92
f 92 235 94
f 235 237 94
f 94 237 96
f 237 239 96
f 96 239 98
f 239 241 98
f 98 241 100
f 241 243 100
f 100 243 102
f 243 245 102
f 102 245 104
f 245 247 104
f 104 247 106
f 247 249 106
f 106 249 108
f 249 251 108
f 108 251 110
f 251 253 110
f 110 253 112
f 253 255 112
f 112 255 114
f 255 257 114
f 114 257 116
f 257 259 116
f 116 259 118
f 259 261 118
f 118 261 120
f 261 263 120
f 120 263 122
f 263 265 122
f 122 265 124
f 265 267 124
f 124 267 126
f 267 269 126
f 126 269 128
f 269 271 128
f 128 271 130
f 271 273 130
f 130 273 132
f 273 275 132
f 132 275 134
f 275 277 134
f 134 277 136
f 277 279 136
f 136 279 138
f 279 281 138
f 138 281 140
f 281 283 140
f 140 283 142
f 283 285 142
f 142 285 144
f 285 287 144
f 144 287 2
f 287 145 2
f 2 145 4
f 145 147 4
f 4 147 6
f 147 149 6
f 6 149 8
f 149 151 8
f 8 151 10
f 151 153 10
f 10 153 12
f 153 155 12
f 12 155 14
f 155 157 14
f 14 157 16
f 157 159 16
f 16 159 18
f 159 161 18
f 18 161 20
f 161 163 20
f 20 163 22
f 163 165 22
f 22 165 24
f 165 167 24
f 24 167 26
f 167 169 26
f 26 169 28
f 169 171 28
f 28 171 30
f 171 173 30
f 30 173 32
f 173 175 32
f 32 175 34
f 175 177 34
f 34 177 36
f 177 179 36
f 36 179 38
f 179 181 38
f 38 181 40
f 181 183 40
f 40 183 42
f 183 185 42
f 42 185 44
f 185 187 44
f 44 187 46
f 187 189 46
f 46 189 48
f 189 191 48
f 48 191 50
f 191 193 50
f 50 193 52
f 193 195 52
f 52 195 54
f 195 197 54
f 54 197 56
f 197 199 56
f 56 199 58
f 199 201 58
f 11 154 9
f 154 152 9
f 9 152 7
f 152 150 7
f 7 150 5
f 150 148 5
f 5 148 3
f 148 146 3
f 3 146 1
f 146 288 1
f 1 288 143
f 288 286 143
f 143 286 141
f 286 284 141
f 141 284 139
f 284 282 139
f 139 282 137
f 282 280 137
f 137 280 135
f 280 278 135
f 135 278 133
f 278 276 133
f 133 276 131
f 276 274 131
f 131 274 129
f 274 272 129
f 129 272 127
f 272 270 127
f 127 270 125
f 270 268 125
f 125 268 123
f 268 266 123
f 123 266 121
f 266 264 121
f 121 264 119
f 264 262 119
f 119 262 117
f 262 260 117
f 117 260 115
f 260 258 115
f 115 258 113
f 258 256 113
f 113 256 111
f 256 254 111
f 111 254 109
f 254 252 109
f 109 252 107
f 252 250 107
f 107 250 105
f 250 248 105
f 105 248 103
f 248 246 103
f 103 246 101
f 246 244 101
f 101 244 99
f 244 242 99
f 99 242 97
f 242 240 97
f 97 240 95
f 240 238 95
f 95 238 93
f 238 236 93
f 93 236 91
f 236 234 91
f 91 234 89
f 234 232 89
f 89 232 87
f 232 230 87
f 87 230 85
f 230 228 85
f 85 228 83
f 228 226 83
f 83 226 81
f 226 224 81
f 81 224 79
f 224 222 79
f 79 222 77
f 222 220 77
f 77 220 75
f 220 218 75
f 75 218 73
f 218 216 73
f 73 216 71
f 216 214 71
f 71 214 69
f 214 212 69
f 69 212 67
f 212 210 67
f 67 210 65
f 210 208 65
f 65 208 63
f 208 206 63
f 63 206 61
f 206 204 61
f 61 204 59
f 204 202 59
f 59 202 57
f 202 200 57
f 57 200 55
f 200 198 55
f 55 198 53
f 198 196 53
f 53 196 51
f 196 194 51
f 51 194 49
f 194 192 49
f 49 192 47
f 192 190 47
f 47 190 45
f 190 188 45
f 45 188 43
f 188 186 43
f 43 186 41
f 186 184 41
f 41 184 39
f 184 182 39
f 39 182 37
f 182 180 37
f 37 180 35
f 180 178 35
f 35 178 33
f 178 176 33
f 33 176 31
f 176 174 31
f 31 174 29
f 174 172 29
f 29 172 27
f 172 170 27
f 27 170 25
f 170 168 25
f 25 168 23
f 168 166 23
f 23 166 21
f 166 164 21
f 21 164 19
f 164 162 19
f 19 162 17
f 162 160 17
f 17 160 15
f 160 158 15
f 15 158 13
f 158 156 13
f 13 156 11
f 156 154 11
