v -0.022271 -0.050141 -0.00495
v -0.021628 -0.049375 -0.00495
v -0.022207 -0.0502 -0.00495
v -0.0215 -0.049493 -0.00495
v -0.022148 -0.050264 -0.00495
v -0.021382 -0.049621 -0.00495
v -0.022095 -0.050333 -0.00495
v -0.021276 -0.04976 -0.00495
v -0.022048 -0.050407 -0.00495
v -0.021182 -0.049907 -0.00495
v -0.022008 -0.050484 -0.00495
v -0.021101 -0.050062 -0.00495
v -0.021974 -0.050565 -0.00495
v -0.021034 -0.050223 -0.00495
v -0.021948 -0.050648 -0.00495
v -0.020982 -0.050389 -0.00495
v -0.021929 -0.050733 -0.00495
v -0.020944 -0.05056 -0.00495
v -0.021918 -0.05082 -0.00495
v -0.020921 -0.050733 -0.00495
v -0.021914 -0.050907 -0.00495
v -0.020914 -0.050907 -0.00495
v -0.021918 -0.050994 -0.00495
v -0.020921 -0.051081 -0.00495
v -0.021929 -0.051081 -0.00495
v -0.020944 -0.051254 -0.00495
v -0.021948 -0.051166 -0.00495
v -0.020982 -0.051425 -0.00495
v -0.021974 -0.051249 -0.00495
v -0.021034 -0.051591 -0.00495
v -0.022008 -0.05133 -0.00495
v -0.021101 -0.051752 -0.00495
v -0.022048 -0.051407 -0.00495
v -0.021182 -0.051907 -0.00495
v -0.022095 -0.051481 -0.00495
v -0.021276 -0.052054 -0.00495
v -0.022148 -0.05155 -0.00495
v -0.021382 -0.052193 -0.00495
v -0.022207 -0.051614 -0.00495
v -0.0215 -0.052321 -0.00495
v -0.022271 -0.051673 -0.00495
v -0.021628 -0.052439 -0.00495
v -0.02234 -0.051726 -0.00495
v -0.021767 -0.052545 -0.00495
v -0.022414 -0.051773 -0.00495
v -0.021914 -0.052639 -0.00495
v -0.022491 -0.051813 -0.00495
v -0.022069 -0.05272 -0.00495
v -0.022572 -0.051847 -0.00495
v -0.02223 -0.052786 -0.00495
v -0.022655 -0.051873 -0.00495
v -0.022396 -0.052839 -0.00495
v -0.02274 -0.051892 -0.00495
v -0.022567 -0.052877 -0.00495
v -0.022827 -0.051903 -0.00495
v -0.02274 -0.052899 -0.00495
v -0.022914 -0.051907 -0.00495
v -0.022914 -0.052907 -0.00495
v -0.023001 -0.051903 -0.00495
v -0.023088 -0.052899 -0.00495
v -0.023088 -0.051892 -0.00495
v -0.023261 -0.052877 -0.00495
v -0.023173 -0.051873 -0.00495
v -0.023432 -0.052839 -0.00495
v -0.023256 -0.051847 -0.00495
v -0.023598 -0.052786 -0.00495
v -0.023336 -0.051813 -0.00495
v -0.023759 -0.05272 -0.00495
v -0.023414 -0.051773 -0.00495
v -0.023914 -0.052639 -0.00495
v -0.023487 -0.051726 -0.00495
v -0.024061 -0.052545 -0.00495
v -0.023557 -0.051673 -0.00495
v -0.024199 -0.052439 -0.00495
v -0.023621 -0.051614 -0.00495
v -0.024328 -0.052321 -0.00495
v -0.02368 -0.05155 -0.00495
v -0.024446 -0.052193 -0.00495
v -0.023733 -0.051481 -0.00495
v -0.024552 -0.052054 -0.00495
v -0.02378 -0.051407 -0.00495
v -0.024646 -0.051907 -0.00495
v -0.02382 -0.05133 -0.00495
v -0.024726 -0.051752 -0.00495
v -0.023854 -0.051249 -0.00495
v -0.024793 -0.051591 -0.00495
v -0.02388 -0.051166 -0.00495
v -0.024846 -0.051425 -0.00495
v -0.023899 -0.051081 -0.00495
v -0.024883 -0.051254 -0.00495
v -0.02391 -0.050994 -0.00495
v -0.024906 -0.051081 -0.00495
v -0.023914 -0.050907 -0.00495
v -0.024914 -0.050907 -0.00495
v -0.02391 -0.05082 -0.00495
v -0.024906 -0.050733 -0.00495
v -0.023899 -0.050733 -0.00495
v -0.024883 -0.05056 -0.00495
v -0.02388 -0.050648 -0.00495
v -0.024846 -0.050389 -0.00495
v -0.023854 -0.050565 -0.00495
v -0.024793 -0.050223 -0.00495
v -0.02382 -0.050484 -0.00495
v -0.024726 -0.050062 -0.00495
v -0.02378 -0.050407 -0.00495
v -0.024646 -0.049907 -0.00495
v -0.023733 -0.050333 -0.00495
v -0.024552 -0.04976 -0.00495
v -0.02368 -0.050264 -0.00495
v -0.024446 -0.049621 -0.00495
v -0.023621 -0.0502 -0.00495
v -0.024328 -0.049493 -0.00495
v -0.023557 -0.050141 -0.00495
v -0.024199 -0.049375 -0.00495
v -0.023487 -0.050088 -0.00495
v -0.024061 -0.049269 -0.00495
v -0.023414 -0.050041 -0.00495
v -0.023914 -0.049175 -0.00495
v -0.023336 -0.050001 -0.00495
v -0.023759 -0.049094 -0.00495
v -0.023256 -0.049967 -0.00495
v -0.023598 -0.049028 -0.00495
v -0.023173 -0.049941 -0.00495
v -0.023432 -0.048975 -0.00495
v -0.023088 -0.049922 -0.00495
v -0.023261 -0.048937 -0.00495
v -0.023001 -0.049911 -0.00495
v -0.023088 -0.048915 -0.00495
v -0.022914 -0.049907 -0.00495
v -0.022914 -0.048907 -0.00495
v -0.022827 -0.049911 -0.00495
v -0.02274 -0.048915 -0.00495
v -0.02274 -0.049922 -0.00495
v -0.022567 -0.048937 -0.00495
v -0.022655 -0.049941 -0.00495
v -0.022396 -0.048975 -0.00495
v -0.022572 -0.049967 -0.00495
v -0.02223 -0.049028 -0.00495
v -0.022491 -0.050001 -0.00495
v -0.022069 -0.049094 -0.00495
v -0.022414 -0.050041 -0.00495
v -0.021914 -0.049175 -0.00495
v -0.02234 -0.050088 -0.00495
v -0.021767 -0.049269 -0.00495
v -0.022148 -0.05155 -0.00295
v -0.022095 -0.051481 -0.00295
v -0.022048 -0.051407 -0.00295
v -0.022008 -0.05133 -0.00295
v -0.021974 -0.051249 -0.00295
v -0.021948 -0.051166 -0.00295
v -0.021929 -0.051081 -0.00295
v -0.021918 -0.050994 -0.00295
v -0.021914 -0.050907 -0.00295
v -0.021918 -0.05082 -0.00295
v -0.021929 -0.050733 -0.00295
v -0.021948 -0.050648 -0.00295
v -0.021974 -0.050565 -0.00295
v -0.022008 -0.050484 -0.00295
v -0.022048 -0.050407 -0.00295
v -0.022095 -0.050333 -0.00295
v -0.022148 -0.050264 -0.00295
v -0.022207 -0.0502 -0.00295
v -0.022271 -0.050141 -0.00295
v -0.02234 -0.050088 -0.00295
v -0.022414 -0.050041 -0.00295
v -0.022491 -0.050001 -0.00295
v -0.022572 -0.049967 -0.00295
v -0.022655 -0.049941 -0.00295
v -0.02274 -0.049922 -0.00295
v -0.022827 -0.049911 -0.00295
v -0.022914 -0.049907 -0.00295
v -0.023001 -0.049911 -0.00295
v -0.023088 -0.049922 -0.00295
v -0.023173 -0.049941 -0.00295
v -0.023256 -0.049967 -0.00295
v -0.023336 -0.050001 -0.00295
v -0.023414 -0.050041 -0.00295
v -0.023487 -0.050088 -0.00295
v -0.023557 -0.050141 -0.00295
v -0.023621 -0.0502 -0.00295
v -0.02368 -0.050264 -0.00295
v -0.023733 -0.050333 -0.00295
v -0.02378 -0.050407 -0.00295
v -0.02382 -0.050484 -0.00295
v -0.023854 -0.050565 -0.00295
v -0.02388 -0.050648 -0.00295
v -0.023899 -0.050733 -0.00295
v -0.02391 -0.05082 -0.00295
v -0.023914 -0.050907 -0.00295
v -0.02391 -0.050994 -0.00295
v -0.023899 -0.051081 -0.00295
v -0.02388 -0.051166 -0.00295
v -0.023854 -0.051249 -0.00295
v -0.02382 -0.05133 -0.00295
v -0.02378 -0.051407 -0.00295
v -0.023733 -0.051481 -0.00295
v -0.02368 -0.05155 -0.00295
v -0.023621 -0.051614 -0.00295
v -0.023557 -0.051673 -0.00295
v -0.023487 -0.051726 -0.00295
v -0.023414 -0.051773 -0.00295
v -0.023336 -0.051813 -0.00295
v -0.023256 -0.051847 -0.00295
v -0.023173 -0.051873 -0.00295
v -0.023088 -0.051892 -0.00295
v -0.023001 -0.051903 -0.00295
v -0.022914 -0.051907 -0.00295
v -0.022827 -0.051903 -0.00295
v -0.02274 -0.051892 -0.00295
v -0.022655 -0.051873 -0.00295
v -0.022572 -0.051847 -0.00295
v -0.022491 -0.051813 -0.00295
v -0.022414 -0.051773 -0.00295
v -0.02234 -0.051726 -0.00295
v -0.022271 -0.051673 -0.00295
v -0.022207 -0.051614 -0.00295
v -0.024199 -0.052439 -0.00295
v -0.024061 -0.052545 -0.00295
v -0.023914 -0.052639 -0.00295
v -0.023759 -0.05272 -0.00295
v -0.023598 -0.052786 -0.00295
v -0.023432 -0.052839 -0.00295
v -0.023261 -0.052877 -0.00295
v -0.023088 -0.052899 -0.00295
v -0.022914 -0.052907 -0.00295
v -0.02274 -0.052899 -0.00295
v -0.022567 -0.052877 -0.00295
v -0.022396 -0.052839 -0.00295
v -0.02223 -0.052786 -0.00295
v -0.022069 -0.05272 -0.00295
v -0.021914 -0.052639 -0.00295
v -0.021767 -0.052545 -0.00295
v -0.021628 -0.052439 -0.00295
v -0.0215 -0.052321 -0.00295
v -0.021382 -0.052193 -0.00295
v -0.021276 -0.052054 -0.00295
v -0.021182 -0.051907 -0.00295
v -0.021101 -0.051752 -0.00295
v -0.021034 -0.051591 -0.00295
v -0.020982 -0.051425 -0.00295
v -0.020944 -0.051254 -0.00295
v -0.020921 -0.051081 -0.00295
v -0.020914 -0.050907 -0.00295
v -0.020921 -0.050733 -0.00295
v -0.020944 -0.05056 -0.00295
v -0.020982 -0.050389 -0.00295
v -0.021034 -0.050223 -0.00295
v -0.021101 -0.050062 -0.00295
v -0.021182 -0.049907 -0.00295
v -0.021276 -0.04976 -0.00295
v -0.021382 -0.049621 -0.00295
v -0.0215 -0.049493 -0.00295
v -0.021628 -0.049375 -0.00295
v -0.021767 -0.049269 -0.00295
v -0.021914 -0.049175 -0.00295
v -0.022069 -0.049094 -0.00295
v -0.02223 -0.049028 -0.00295
v -0.022396 -0.048975 -0.00295
v -0.022567 -0.048937 -0.00295
v -0.02274 -0.048915 -0.00295
v -0.022914 -0.048907 -0.00295
v -0.023088 -0.048915 -0.00295
v -0.023261 -0.048937 -0.00295
v -0.023432 -0.048975 -0.00295
v -0.023598 -0.049028 -0.00295
v -0.023759 -0.049094 -0.00295
v -0.023914 -0.049175 -0.00295
v -0.024061 -0.049269 -0.00295
v -0.024199 -0.049375 -0.00295
v -0.024328 -0.049493 -0.00295
v -0.024446 -0.049621 -0.00295
v -0.024552 -0.04976 -0.00295
v -0.024646 -0.049907 -0.00295
v -0.024726 -0.050062 -0.00295
v -0.024793 -0.050223 -0.00295
v -0.024846 -0.050389 -0.00295
v -0.024883 -0.05056 -0.00295
v -0.024906 -0.050733 -0.00295
v -0.024914 -0.050907 -0.00295
v -0.024906 -0.051081 -0.00295
v -0.024883 -0.051254 -0.00295
v -0.024846 -0.051425 -0.00295
v -0.024793 -0.051591 -0.00295
v -0.024726 -0.051752 -0.00295
v -0.024646 -0.051907 -0.00295
v -0.024552 -0.052054 -0.00295
v -0.024446 -0.052193 -0.00295
v -0.024328 -0.052321 -0.00295
f 1 2 3
f 2 4 3
f 3 4 5
f 4 6 5
f 5 6 7
f 6 8 7
f 7 8 9
f 8 10 9
f 9 10 11
f 10 12 11
f 11 12 13
f 12 14 13
f 13 14 15
f 14 16 15
f 15 16 17
f 16 18 17
f 17 18 19
f 18 20 19
f 19 20 21
f 20 22 21
f 21 22 23
f 22 24 23
f 23 24 25
f 24 26 25
f 25 26 27
f 26 28 27
f 27 28 29
f 28 30 29
f 29 30 31
f 30 32 31
f 31 32 33
f 32 34 33
f 33 34 35
f 34 36 35
f 35 36 37
f 36 38 37
f 37 38 39
f 38 40 39
f 39 40 41
f 40 42 41
f 41 42 43
f 42 44 43
f 43 44 45
f 44 46 45
f 45 46 47
f 46 48 47
f 47 48 49
f 48 50 49
f 49 50 51
f 50 52 51
f 51 52 53
f 52 54 53
f 53 54 55
f 54 56 55
f 55 56 57
f 56 58 57
f 57 58 59
f 58 60 59
f 59 60 61
f 60 62 61
f 61 62 63
f 62 64 63
f 63 64 65
f 64 66 65
f 65 66 67
f 66 68 67
f 67 68 69
f 68 70 69
f 69 70 71
f 70 72 71
f 71 72 73
f 72 74 73
f 73 74 75
f 74 76 75
f 75 76 77
f 76 78 77
f 77 78 79
f 78 80 79
f 79 80 81
f 80 82 81
f 81 82 83
f 82 84 83
f 83 84 85
f 84 86 85
f 85 86 87
f 86 88 87
f 87 88 89
f 88 90 89
f 89 90 91
f 90 92 91
f 91 92 93
f 92 94 93
f 93 94 95
f 94 96 95
f 95 96 97
f 96 98 97
f 97 98 99
f 98 100 99
f 99 100 101
f 100 102 101
f 101 102 103
f 102 104 103
f 103 104 105
f 104 106 105
f 105 106 107
f 106 108 107
f 107 108 109
f 108 110 109
f 109 110 111
f 110 112 111
f 111 112 113
f 112 114 113
f 113 114 115
f 114 116 115
f 115 116 117
f 116 118 117
f 117 118 119
f 118 120 119
f 119 120 121
f 120 122 121
f 121 122 123
f 122 124 123
f 123 124 125
f 124 126 125
f 125 126 127
f 126 128 127
f 127 128 129
f 128 130 129
f 129 130 131
f 130 132 131
f 131 132 133
f 132 134 133
f 133 134 135
f 134 136 135
f 135 136 137
f 136 138 137
f 137 138 139
f 138 140 139
f 139 140 141
f 140 142 141
f 141 142 143
f 142 144 143
f 143 144 1
f 144 2 1
f 37 145 35
f 145 146 35
f 35 146 33
f 146 147 33
f 33 147 31
f 147 148 31
f 31 148 29
f 148 149 29
f 29 149 27
f 149 150 27
f 27 150 25
f 150 151 25
f 25 151 23
f 151 152 23
f 23 152 21
f 152 153 21
f 21 153 19
f 153 154 19
f 19 154 17
f 154 155 17
f 17 155 15
f 155 156 15
f 15 156 13
f 156 157 13
f 13 157 11
f 157 158 11
f 11 158 9
f 158 159 9
f 9 159 7
f 159 160 7
f 7 160 5
f 160 161 5
f 5 161 3
f 161 162 3
f 3 162 1
f 162 163 1
f 1 163 143
f 163 164 143
f 143 164 141
f 164 165 141
f 141 165 139
f 165 166 139
f 139 166 137
f 166 167 137
f 137 167 135
f 167 168 135
f 135 168 133
f 168 169 133
f 133 169 131
f 169 170 131
f 131 170 129
f 170 171 129
f 129 171 127
f 171 172 127
f 127 172 125
f 172 173 125
f 125 173 123
f 173 174 123
f 123 174 121
f 174 175 121
f 121 175 119
f 175 176 119
f 119 176 117
f 176 177 117
f 117 177 115
f 177 178 115
f 115 178 113
f 178 179 113
f 113 179 111
f 179 180 111
f 111 180 109
f 180 181 109
f 109 181 107
f 181 182 107
f 107 182 105
f 182 183 105
f 105 183 103
f 183 184 103
f 103 184 101
f 184 185 101
f 101 185 99
f 185 186 99
f 99 186 97
f 186 187 97
f 97 187 95
f 187 188 95
f 95 188 93
f 188 189 93
f 93 189 91
f 189 190 91
f 91 190 89
f 190 191 89
f 89 191 87
f 191 192 87
f 87 192 85
f 192 193 85
f 85 193 83
f 193 194 83
f 83 194 81
f 194 195 81
f 81 195 79
f 195 196 79
f 79 196 77
f 196 197 77
f 77 197 75
f 197 198 75
f 75 198 73
f 198 199 73
f 73 199 71
f 199 200 71
f 71 200 69
f 200 201 69
f 69 201 67
f 201 202 67
f 67 202 65
f 202 203 65
f 65 203 63
f 203 204 63
f 63 204 61
f 204 205 61
f 61 205 59
f 205 206 59
f 59 206 57
f 206 207 57
f 57 207 55
f 207 208 55
f 55 208 53
f 208 209 53
f 53 209 51
f 209 210 51
f 51 210 49
f 210 211 49
f 49 211 47
f 211 212 47
f 47 212 45
f 212 213 45
f 45 213 43
f 213 214 43
f 43 214 41
f 214 215 41
f 41 215 39
f 215 216 39
f 39 216 37
f 216 145 37
f 199 217 200
f 217 218 200
f 200 218 201
f 218 219 201
f 201 219 202
f 219 220 202
f 202 220 203
f 220 221 203
f 203 221 204
f 221 222 204
f 204 222 205
f 222 223 205
f 205 223 206
f 223 224 206
f 206 224 207
f 224 225 207
f 207 225 208
f 225 226 208
f 208 226 209
f 226 227 209
f 209 227 210
f 227 228 210
f 210 228 211
f 228 229 211
f 211 229 212
f 229 230 212
f 212 230 213
f 230 231 213
f 213 231 214
f 231 232 214
f 214 232 215
f 232 233 215
f 215 233 216
f 233 234 216
f 216 234 145
f 234 235 145
f 145 235 146
f 235 236 146
f 146 236 147
f 236 237 147
f 147 237 148
f 237 238 148
f 148 238 149
f 238 239 149
f 149 239 150
f 239 240 150
f 150 240 151
f 240 241 151
f 151 241 152
f 241 242 152
f 152 242 153
f 242 243 153
f 153 243 154
f 243 244 154
f 154 244 155
f 244 245 155
f 155 245 156
f 245 246 156
f 156 246 157
f 246 247 157
f 157 247 158
f 247 248 158
f 158 248 159
f 248 249 159
f 159 249 160
f 249 250 160
f 160 250 161
f 250 251 161
f 161 251 162
f 251 252 162
f 162 252 163
f 252 253 163
f 163 253 164
f 253 254 164
f 164 254 165
f 254 255 165
f 165 255 166
f 255 256 166
f 166 256 167
f 256 257 167
f 167 257 168
f 257 258 168
f 168 258 169
f 258 259 169
f 169 259 170
f 259 260 170
f 170 260 171
f 260 261 171
f 171 261 172
f 261 262 172
f 172 262 173
f 262 263 173
f 173 263 174
f 263 264 174
f 174 264 175
f 264 265 175
f 175 265 176
f 265 266 176
f 176 266 177
f 266 267 177
f 177 267 178
f 267 268 178
f 178 268 179
f 268 269 179
f 179 269 180
f 269 270 180
f 180 270 181
f 270 271 181
f 181 271 182
f 271 272 182
f 182 272 183
f 272 273 183
f 183 273 184
f 273 274 184
f 184 274 185
f 274 275 185
f 185 275 186
f 275 276 186
f 186 276 187
f 276 277 187
f 187 277 188
f 277 278 188
f 188 278 189
f 278 279 189
f 189 279 190
f 279 280 190
f 190 280 191
f 280 281 191
f 191 281 192
f 281 282 192
f 192 282 193
f 282 283 193
f 193 283 194
f 283 284 194
f 194 284 195
f 284 285 195
f 195 285 196
f 285 286 196
f 196 286 197
f 286 287 197
f 197 287 198
f 287 288 198
f 198 288 199
f 288 217 199
f 235 36 236
f 36 34 236
f 236 34 237
f 34 32 237
f 237 32 238
f 32 30 238
f 238 30 239
f 30 28 239
f 239 28 240
f 28 26 240
f 240 26 241
f 26 24 241
f 241 24 242
f 24 22 242
f 242 22 243
f 22 20 243
f 243 20 244
f 20 18 244
f 244 18 245
f 18 16 245
f 245 16 246
f 16 14 246
f 246 14 247
f 14 12 247
f 247 12 248
f 12 10 248
f 248 10 249
f 10 8 249
f 249 8 250
f 8 6 250
f 250 6 251
f 6 4 251
f 251 4 252
f 4 2 252
f 252 2 253
f 2 144 253
f 253 144 254
f 144 142 254
f 254 142 255
f 142 140 255
f 255 140 256
f 140 138 256
f 256 138 257
f 138 136 257
f 257 136 258
f 136 134 258
f 258 134 259
f 134 132 259
f 259 132 260
f 132 130 260
f 260 130 261
f 130 128 261
f 261 128 262
f 128 126 262
f 262 126 263
f 126 124 263
f 263 124 264
f 124 122 264
f 264 122 265
f 122 120 265
f 265 120 266
f 120 118 266
f 266 118 267
f 118 116 267
f 267 116 268
f 116 114 268
f 268 114 269
f 114 112 269
f 269 112 270
f 112 110 270
f 270 110 271
f 110 108 271
f 271 108 272
f 108 106 272
f 272 106 273
f 106 104 273
f 273 104 274
f 104 102 274
f 274 102 275
f 102 100 275
f 275 100 276
f 100 98 276
f 276 98 277
f 98 96 277
f 277 96 278
f 96 94 278
f 278 94 279
f 94 92 279
f 279 92 280
f 92 90 280
f 280 90 281
f 90 88 281
f 281 88 282
f 88 86 282
f 282 86 283
f 86 84 283
f 283 84 284
f 84 82 284
f 284 82 285
f 82 80 285
f 285 80 286
f 80 78 286
f 286 78 287
f 78 76 287
f 287 76 288
f 76 74 288
f 288 74 217
f 74 72 217
f 217 72 218
f 72 70 218
f 218 70 219
f 70 68 219
f 219 68 220
f 68 66 220
f 220 66 221
f 66 64 221
f 221 64 222
f 64 62 222
f 222 62 223
f 62 60 223
f 223 60 224
f 60 58 224
f 224 58 225
f 58 56 225
f 225 56 226
f 56 54 226
f 226 54 227
f 54 52 227
f 227 52 228
f 52 50 228
f 228 50 229
f 50 48 229
f 229 48 230
f 48 46 230
f 230 46 231
f 46 44 231
f 231 44 232
f 44 42 232
f 232 42 233
f 42 40 233
f 233 40 234
f 40 38 234
f 234 38 235
f 38 36 235
